<svg xmlns="http://www.w3.org/2000/svg" viewBox="0 0 243.26 34.95">
  <g id="Calque_2" data-name="Calque 2">
    <g id="Calque_1-2" data-name="Calque 1">
      <g>
        <path d="M0,41.16v-.77c.67,0,2.88-1,2.88-4V11.64c0-3.08-2.21-4-2.88-4V6.84H9.46V7.6c-.63,0-2.84,1-2.84,4V40.39H20.16c3.6,0,6.63-4.56,6.63-4.56l-1.44,5.33Z" transform="translate(0 -6.21)"/>
        <path d="M49.35,36.31c0,3.12,2.2,4.08,2.83,4.08v.77H45.89v-2.5a16.34,16.34,0,0,1-8.16,2.45c-4.56,0-8.55-2-8.55-4.94,0-3.46,4.08-4.42,7.64-5.62,2.92-.91,6.28-2.06,8.83-4.66-.48-3.16-2-5.56-6-5.56a4.89,4.89,0,0,0-4.94,5.23,1.72,1.72,0,0,1-1.83,1.73,1.7,1.7,0,0,1-1.77-1.73c0-2.69,3.69-6,8.88-6,5.42,0,9.41,3,9.41,10.41ZM45.89,30c0-1,0-2.11-.1-3.12-2.64,2.45-5.85,3.51-8.73,4.47-3.56,1.15-4.42,2.88-4.42,4.85,0,2.4,2.45,4,5.71,4a13.41,13.41,0,0,0,7.54-2.4Z" transform="translate(0 -6.21)"/>
        <path d="M64.17,24c0-10.22,7.25-17.18,16.33-17.18,8.25,0,13.73,5.23,13.73,9.5A2,2,0,0,1,92.4,18.5a2,2,0,0,1-1.92-2.21c0-5.71-5.28-8.69-9.41-8.69C74.64,7.6,68,13.22,68,24c0,9.7,7,15.8,13.53,15.8a15,15,0,0,0,11-5l.67.39a17.12,17.12,0,0,1-12.91,5.95C71.38,41.16,64.17,33.48,64.17,24Z" transform="translate(0 -6.21)"/>
        <path d="M95,40.39c.67,0,2.83-1,2.83-4.08V11.69A2.63,2.63,0,0,0,95,9V8.47a51,51,0,0,1,5.18-2.26c1.16,0,1.16.87,1.16,2.26V36.31c0,3.12,2.16,4.08,2.83,4.08v.77H95Z" transform="translate(0 -6.21)"/>
        <path d="M126,36.31c0,3.12,2.21,4.08,2.84,4.08v.77H122.5v-2.5a16.34,16.34,0,0,1-8.16,2.45c-4.56,0-8.55-2-8.55-4.94,0-3.46,4.08-4.42,7.63-5.62,2.93-.91,6.29-2.06,8.84-4.66-.48-3.16-2-5.56-6.05-5.56a4.9,4.9,0,0,0-4.95,5.23,1.8,1.8,0,0,1-3.6,0c0-2.69,3.7-6,8.88-6,5.43,0,9.41,3,9.41,10.41ZM122.5,30c0-1,0-2.11-.1-3.12-2.64,2.45-5.86,3.51-8.74,4.47-3.55,1.15-4.41,2.88-4.41,4.85,0,2.4,2.45,4,5.71,4a13.48,13.48,0,0,0,7.54-2.4Z" transform="translate(0 -6.21)"/>
        <path d="M131.18,40.39c.67,0,2.83-1,2.83-4.08V25.08a2.65,2.65,0,0,0-2.83-2.79v-.43a49.86,49.86,0,0,1,5.19-2.3c1.15,0,1.15.91,1.15,2.3V36.31c0,3.12,2.16,4.08,2.83,4.08v.77h-9.17Zm4.56-24.91a2.14,2.14,0,1,1,2.16-2.11A2.13,2.13,0,0,1,135.74,15.48Z" transform="translate(0 -6.21)"/>
        <path d="M149.09,23.64a10.1,10.1,0,0,1,8-4.08c3,0,6.87,1.58,6.87,4.51a1.6,1.6,0,0,1-1.68,1.63,1.65,1.65,0,0,1-1.78-1.63c0-2.83-1.92-3.74-3.84-3.74-4.56,0-7.2,4-7.58,4.6V36.31c0,3.12,2.16,4.08,2.83,4.08v.77h-9.17v-.77c.67,0,2.83-1,2.83-4.08V25.08a2.65,2.65,0,0,0-2.83-2.79v-.43a49.86,49.86,0,0,1,5.19-2.3c1.15,0,1.15.91,1.15,2.3Z" transform="translate(0 -6.21)"/>
        <path d="M166.37,40.39c.67,0,2.83-1,2.83-4.08V25.08a2.65,2.65,0,0,0-2.83-2.79v-.43a49.62,49.62,0,0,1,5.18-2.3c1.15,0,1.15.91,1.15,2.3V36.31c0,3.12,2.16,4.08,2.84,4.08v.77h-9.17Zm4.56-24.91a2.14,2.14,0,1,1,2.16-2.11A2.13,2.13,0,0,1,170.93,15.48Z" transform="translate(0 -6.21)"/>
        <path d="M180.62,29.59v.77c0,5.47,3.36,9.7,7.44,9.7A9,9,0,0,0,194.64,37l.62.44a10.81,10.81,0,0,1-8.06,3.74c-5.57,0-10.08-4.85-10.08-10.8s4.51-10.8,10.08-10.8c5.28,0,9.65,4.41,10,10Zm0-.77h13c-.48-4.75-3.22-8.49-6.48-8.49S181.15,24,180.67,28.82Zm4.46-15.41a2,2,0,0,1,1.4.82,5.28,5.28,0,0,1,1.05,2.4.56.56,0,0,1-.14.43.67.67,0,0,1-.29.1,5.23,5.23,0,0,1-2.45-1.3,2.07,2.07,0,0,1-.67-1.34,1.07,1.07,0,0,1,.39-.82A1,1,0,0,1,185.13,13.41Z" transform="translate(0 -6.21)"/>
        <path d="M205.92,23.64a10.1,10.1,0,0,1,8-4.08c3,0,6.87,1.58,6.87,4.51a1.6,1.6,0,0,1-1.68,1.63,1.65,1.65,0,0,1-1.78-1.63c0-2.83-1.92-3.74-3.84-3.74-4.56,0-7.2,4-7.58,4.6V36.31c0,3.12,2.16,4.08,2.83,4.08v.77h-9.17v-.77c.67,0,2.83-1,2.83-4.08V25.08a2.65,2.65,0,0,0-2.83-2.79v-.43a49.86,49.86,0,0,1,5.19-2.3c1.15,0,1.15.91,1.15,2.3Z" transform="translate(0 -6.21)"/>
        <path d="M226.7,29.59v.77c0,5.47,3.36,9.7,7.44,9.7A9,9,0,0,0,240.72,37l.62.44a10.81,10.81,0,0,1-8.06,3.74c-5.57,0-10.08-4.85-10.08-10.8s4.51-10.8,10.08-10.8c5.28,0,9.65,4.41,10,10Zm.05-.77h13c-.48-4.75-3.22-8.49-6.48-8.49S227.23,24,226.75,28.82Z" transform="translate(0 -6.21)"/>
      </g>
    </g>
  </g>
</svg>
